<svg width="720" height="720" viewBox="0 0 720 720" fill="none" xmlns="http://www.w3.org/2000/svg">
<ellipse cx="359.505" cy="452.188" rx="328.5" ry="115.839" fill="url(#paint0_linear)"/>
<rect x="555.719" y="426.328" width="3.41892" height="25.3637" transform="rotate(28.3269 555.719 426.328)" fill="#737373"/>
<rect x="557.159" y="430.862" width="3.41892" height="18.7471" transform="rotate(28.3269 557.159 430.862)" fill="#3B4B5B"/>
<path d="M426.941 220.794C428.855 220.202 430.848 219.9 432.853 219.9H530.348C532.362 219.9 534.364 220.205 536.287 220.803L584.264 235.723C594.717 238.974 600.615 250.024 597.497 260.517L537.636 461.996C535.115 470.481 527.316 476.3 518.464 476.3H444.73C435.888 476.3 428.096 470.494 425.566 462.022L365.411 260.562C362.273 250.052 368.185 238.976 378.663 235.734L426.941 220.794Z" fill="#949292"/>
<path d="M431.458 223.225C433.362 222.64 435.342 222.342 437.334 222.342H528.287C530.288 222.342 532.278 222.643 534.19 223.233L577.671 236.665C588.158 239.904 594.074 250.99 590.929 261.505L535.574 446.566C533.041 455.033 525.251 460.834 516.412 460.834H449.201C440.373 460.834 432.589 455.046 430.048 446.592L374.421 261.55C371.255 251.018 377.187 239.906 387.699 236.675L431.458 223.225Z" fill="#D4D8DA"/>
<path d="M443.226 235.845C445.121 235.266 447.092 234.971 449.074 234.971H514.809C516.8 234.971 518.78 235.269 520.684 235.854L547.112 243.975C557.625 247.206 563.557 258.319 560.39 268.852L518.736 407.388C518.124 409.423 517.201 411.35 515.852 412.991C511.229 418.611 498.905 431.639 483.989 431.639C452.764 431.639 446.219 410.897 446.087 410.466C446.082 410.453 446.083 410.453 446.078 410.439L403.308 268.897C400.12 258.348 406.066 247.208 416.604 243.986L443.226 235.845Z" fill="#F0F0F0"/>
<path d="M481.728 219.9L428.932 219.9L448.07 206.877L481.728 210.99L514.553 206.877L533.933 219.9L481.728 219.9Z" fill="#C2C2C2"/>
<path d="M363.001 252.458L438.7 476.299L382.358 370.141L363.001 252.458Z" fill="#737373"/>
<path d="M599.049 254.086L533.932 473.857L580.359 374.655L599.049 254.086Z" fill="#737373"/>
<path d="M457.663 352.776C467.592 372.752 496.088 372.752 506.018 352.776L530.116 304.297C539.038 286.349 525.983 265.279 505.939 265.279H457.742C437.698 265.279 424.642 286.349 433.564 304.297L457.663 352.776Z" fill="#D4D8DA"/>
<path d="M456.861 335.83C466.799 355.773 495.253 355.773 505.192 335.83L519.373 307.374C528.318 289.424 515.263 268.331 495.207 268.331H466.846C446.79 268.331 433.735 289.424 442.68 307.374L456.861 335.83Z" fill="#F0F0F0"/>
<ellipse cx="481.433" cy="301.296" rx="26.4539" ry="26.0469" fill="#D4D8DA"/>
<ellipse cx="481.433" cy="301.296" rx="26.4539" ry="26.0469" fill="#D4D8DA"/>
<ellipse cx="481.433" cy="301.296" rx="26.4539" ry="26.0469" fill="#D4D8DA"/>
<circle cx="481.433" cy="301.704" r="24.012" fill="#3B4B5B"/>
<circle cx="481.433" cy="301.704" r="19.1282" fill="#C93B59"/>
<circle cx="481.505" cy="301.51" r="15.5" fill="url(#paint1_radial)"/>
<rect width="5.71608" height="55.8117" rx="2.85804" transform="matrix(0.988694 0.149945 -0.146903 0.989151 599.608 249.495)" fill="#0C0D0C"/>
<rect width="5.71608" height="55.8117" rx="2.85804" transform="matrix(0.988694 0.149945 -0.146903 0.989151 604.371 251.419)" fill="#0C0D0C"/>
<rect width="5.71608" height="55.8117" rx="2.85804" transform="matrix(0.988694 0.149945 -0.146903 0.989151 610.085 251.419)" fill="#0C0D0C"/>
<rect width="5.71608" height="55.8117" rx="2.85804" transform="matrix(0.988694 0.149945 -0.146903 0.989151 615.8 251.419)" fill="#0C0D0C"/>
<rect width="5.71608" height="49.9102" rx="2.85804" transform="matrix(0.258819 -0.965926 0.966717 0.255847 602.587 322.087)" fill="#0C0D0C"/>
<rect width="5.71608" height="49.9102" rx="2.85804" transform="matrix(0.258819 -0.965926 0.966717 0.255847 602.587 317.196)" fill="#0C0D0C"/>
<rect width="5.71608" height="49.9102" rx="2.85804" transform="matrix(0.258819 -0.965926 0.966717 0.255847 602.587 326.978)" fill="#0C0D0C"/>
<rect width="5.71608" height="46.1114" rx="2.85804" transform="matrix(-4.37114e-08 -1 0.999995 -0.00307601 599.793 447.482)" fill="#0C0D0C"/>
<rect width="5.71608" height="41.2208" rx="2.85804" transform="matrix(-4.37114e-08 -1 0.999995 -0.00307601 602.587 452.357)" fill="#0C0D0C"/>
<rect width="5.71608" height="41.2208" rx="2.85804" transform="matrix(-4.37114e-08 -1 0.999995 -0.00307601 602.587 455.851)" fill="#0C0D0C"/>
<rect width="5.71608" height="41.2208" rx="2.85804" transform="matrix(-4.37114e-08 -1 0.999995 -0.00307601 602.587 459.344)" fill="#0C0D0C"/>
<path d="M606.886 450.971C607.776 450.795 608.682 450.707 609.589 450.707H634.801C635.711 450.707 636.618 450.796 637.51 450.972C646.399 452.731 651.282 462.361 647.448 470.571L641.557 483.185C638.27 490.224 631.204 494.722 623.436 494.722H620.931C613.176 494.722 606.121 490.24 602.826 483.22L596.923 470.643C593.057 462.406 597.958 452.728 606.886 450.971Z" fill="#737373"/>
<path d="M607.101 455.794C607.849 455.663 608.606 455.598 609.366 455.598H635.025C635.786 455.598 636.546 455.664 637.296 455.796C646.045 457.334 650.764 466.944 646.632 474.808L641.789 484.025C638.333 490.603 631.515 494.722 624.084 494.722H620.281C612.865 494.722 606.058 490.619 602.595 484.061L597.745 474.875C593.58 466.988 598.315 457.332 607.101 455.794Z" fill="#0C0D0C"/>
<path d="M607.337 461.32C607.928 461.231 608.525 461.187 609.123 461.187H635.268C635.868 461.187 636.466 461.231 637.059 461.321C645.565 462.603 650.007 472.146 645.512 479.48L641.262 486.413C638.098 491.575 632.478 494.722 626.424 494.722H617.942C611.903 494.722 606.296 491.59 603.128 486.449L598.872 479.54C594.343 472.189 598.798 462.6 607.337 461.32Z" fill="#737373"/>
<path d="M608.225 468.173H636.169C644.452 469.162 648.491 478.807 643.384 485.403L640.26 489.439C637.679 492.771 633.702 494.722 629.487 494.722H614.885C610.683 494.722 606.715 492.782 604.134 489.466L601.009 485.449C595.87 478.845 599.915 469.16 608.225 468.173Z" fill="#293D55"/>
<path d="M608.225 473.763H636.169C643.714 474.474 647.058 483.619 641.752 489.03L639.305 491.524C637.299 493.57 634.555 494.722 631.69 494.722H612.688C609.832 494.722 607.096 493.577 605.092 491.544L602.647 489.063C597.312 483.651 600.659 474.472 608.225 473.763Z" fill="#C4C4C4"/>
<path d="M614.256 483.543H631.498C635.224 483.771 636.519 488.609 633.405 490.667L632.559 491.227C631.867 491.684 631.057 491.927 630.228 491.927H615.522C614.696 491.927 613.889 491.686 613.199 491.232L612.355 490.677C609.23 488.621 610.523 483.77 614.256 483.543Z" fill="#0C0D0C"/>
<path d="M614.256 485.639H631.498C635.224 485.867 636.519 490.704 633.405 492.763L632.559 493.322C631.867 493.779 631.057 494.023 630.228 494.023H615.522C614.696 494.023 613.889 493.781 613.199 493.328L612.355 492.772C609.23 490.717 610.523 485.866 614.256 485.639Z" fill="#0C0D0C"/>
<rect width="5.71608" height="49.9102" rx="2.85804" transform="matrix(0.258819 -0.965926 0.966717 0.255847 602.587 331.868)" fill="#0C0D0C"/>
<rect width="5.71608" height="49.9102" rx="2.85804" transform="matrix(0.258819 -0.965926 0.966717 0.255847 602.587 336.06)" fill="#0C0D0C"/>
<rect width="5.71608" height="49.9102" rx="2.85804" transform="matrix(0.258819 -0.965926 0.966717 0.255847 602.587 313.004)" fill="#0C0D0C"/>
<path d="M608.177 248.294C608.177 241.645 614.56 239.982 622.539 240.5C642.063 241.768 654.381 260.822 654.672 280.385C654.878 294.24 654.74 310.054 653.59 322.351C651.843 341.018 642.411 324.6 611.321 316.565C591.969 311.564 608.177 275.542 608.177 248.294Z" fill="#D4D8DA"/>
<path d="M633.159 251.745C633.159 236.607 653.589 264.272 653.589 279.41V296.304C653.589 296.304 640.508 289.359 634.64 281.781C627.961 273.157 633.159 266.892 633.159 251.745Z" fill="#F0F0F0"/>
<path d="M599.249 332.604C601.554 318.052 623.026 327.866 636.977 332.604C678.054 346.555 636.977 443.69 636.977 443.69H599.249C599.249 443.69 592.612 374.523 599.249 332.604Z" fill="#D4D8DA"/>
<path d="M621.802 380.842C621.802 380.842 663.37 320.757 659.178 370.362C656.342 403.924 644.165 443.721 644.165 443.721H621.802L621.802 380.842Z" fill="#B03E56"/>
<path d="M625.643 380.882C625.643 380.882 662.645 320.837 658.914 370.409C656.389 403.95 645.549 443.72 645.549 443.72H625.643L625.643 380.882Z" fill="#D4D8DA"/>
<path d="M632.677 383.095C632.677 383.095 659.384 325.558 656.691 373.06C654.869 405.199 643.915 404.84 641.321 438.123C641.015 442.048 632.677 443.309 632.677 443.309L632.677 383.095Z" fill="#F0F0F0"/>
<rect width="5.7488" height="50.1959" rx="2.8744" transform="matrix(-1 1.336e-08 -0.00307595 0.999995 230.636 488.873)" fill="#0C0D0C"/>
<rect width="5.7488" height="50.1959" rx="2.8744" transform="matrix(-1 1.336e-08 -0.00307595 0.999995 225.885 487.6)" fill="#0C0D0C"/>
<rect width="5.7488" height="50.1959" rx="2.8744" transform="matrix(-1 1.336e-08 -0.00307595 0.999995 235.386 490.146)" fill="#0C0D0C"/>
<rect width="7.97807" height="46.3754" rx="3.98903" transform="matrix(-0.999946 0.0103823 0.00730649 0.999973 348.469 484.736)" fill="#72303E"/>
<rect width="5.7488" height="50.1959" rx="2.8744" transform="matrix(-1 1.336e-08 -0.00307595 0.999995 240.138 491.419)" fill="#0C0D0C"/>
<rect width="5.7488" height="50.1959" rx="2.8744" transform="matrix(-1 1.336e-08 -0.00307595 0.999995 244.21 492.51)" fill="#0C0D0C"/>
<rect width="5.7488" height="50.1959" rx="2.8744" transform="matrix(-1 1.336e-08 -0.00307595 0.999995 221.812 486.509)" fill="#0C0D0C"/>
<path d="M157.495 475.095C150.987 473.351 147.709 479.218 146.149 487.196C142.395 506.397 157.569 523.216 176.388 528.565C189.835 532.387 205.316 536.396 217.617 538.488C236.206 541.65 222.711 528.214 222.999 495.92C223.178 475.818 183.964 482.187 157.495 475.095Z" fill="#D4D8DA"/>
<path d="M233.61 484.233C218.975 486.55 228.845 508.146 233.61 522.176C247.641 563.489 345.332 522.176 345.332 522.176V484.233C345.332 484.233 275.769 477.558 233.61 484.233Z" fill="#D4D8DA"/>
<path d="M282.125 506.915C282.125 506.915 221.696 548.721 271.585 544.505C305.339 541.653 345.364 529.406 345.364 529.406V506.915L282.125 506.915Z" fill="#B03E56"/>
<path d="M282.165 510.778C282.165 510.778 221.776 547.992 271.632 544.239C305.365 541.7 345.363 530.798 345.363 530.798V510.778L282.165 510.778Z" fill="#D4D8DA"/>
<rect x="125.737" y="246.576" width="192.985" height="207.321" fill="#C4C4C4"/>
<rect x="137.335" y="274.737" width="169.437" height="46.6816" rx="20" fill="#0C0D0C"/>
<rect x="138.97" y="344.723" width="33.0831" height="22.0554" fill="#0C0D0C"/>
<rect x="138.97" y="346.928" width="33.0831" height="22.0554" fill="#3B4B5B"/>
<rect x="176.464" y="344.723" width="33.0831" height="22.0554" fill="#0C0D0C"/>
<rect x="176.464" y="346.928" width="33.0831" height="22.0554" fill="#B03E56"/>
<rect x="139.064" y="376.745" width="33.0831" height="22.0554" fill="#0C0D0C"/>
<rect x="139.064" y="378.95" width="33.0831" height="22.0554" fill="#3B4B5B"/>
<rect x="176.558" y="376.745" width="33.0831" height="22.0554" fill="#0C0D0C"/>
<rect x="176.558" y="378.95" width="33.0831" height="22.0554" fill="#B03E56"/>
<rect x="139.064" y="407.866" width="33.0831" height="22.0554" fill="#0C0D0C"/>
<rect x="139.064" y="410.071" width="33.0831" height="22.0554" fill="#3B4B5B"/>
<rect x="176.558" y="407.866" width="33.0831" height="22.0554" fill="#0C0D0C"/>
<rect x="176.558" y="410.071" width="33.0831" height="22.0554" fill="#B03E56"/>
<path d="M111.401 205.773L125.737 247.679V454.999L111.401 382.768V205.773Z" fill="#737373"/>
<path d="M111.401 205.773L125.737 247.679H318.721L281.779 205.773H111.401Z" fill="#CECECE"/>
<circle cx="236.565" cy="365.124" r="11.5791" fill="#737373"/>
<circle cx="237.668" cy="365.124" r="11.5791" fill="#3B4B5B"/>
<circle cx="267.443" cy="365.124" r="11.5791" fill="#737373"/>
<circle cx="268.546" cy="365.124" r="11.5791" fill="#3B4B5B"/>
<circle cx="267.443" cy="399.31" r="11.5791" fill="#737373"/>
<circle cx="268.546" cy="399.31" r="11.5791" fill="#3B4B5B"/>
<circle cx="236.565" cy="399.31" r="11.5791" fill="#737373"/>
<circle cx="237.668" cy="399.31" r="11.5791" fill="#3B4B5B"/>
<circle cx="234.36" cy="433.496" r="11.5791" fill="#737373"/>
<circle cx="235.462" cy="433.496" r="11.5791" fill="#3B4B5B"/>
<circle cx="267.443" cy="433.496" r="11.5791" fill="#737373"/>
<circle cx="268.546" cy="433.496" r="11.5791" fill="#3B4B5B"/>
<rect x="444.451" y="184.883" width="3.30831" height="25.3637" transform="rotate(168.729 444.451 184.883)" fill="#737373"/>
<rect x="440.56" y="182.286" width="3.30831" height="18.7471" transform="rotate(168.729 440.56 182.286)" fill="#3B4B5B"/>
<rect x="375.774" y="323.417" width="3.30831" height="25.3637" transform="rotate(170.442 375.774 323.417)" fill="#737373"/>
<rect x="371.962" y="320.705" width="3.30831" height="18.7471" transform="rotate(170.442 371.962 320.705)" fill="#3B4B5B"/>
<path d="M435.505 174.009C262.505 229.509 617.505 415.509 269.096 365.125" stroke="#0C0D0C" stroke-width="3"/>
<circle cx="268.545" cy="365.124" r="6.06523" fill="#0C0D0C"/>
<path d="M367.243 312.742C317.067 320.462 269.096 399.087 269.096 399.087" stroke="#0C0D0C" stroke-width="3"/>
<circle cx="268.545" cy="399.086" r="6.06523" fill="#0C0D0C"/>
<path d="M555.816 440.335C640.178 484.997 268.543 433.496 268.543 433.496" stroke="#0C0D0C" stroke-width="3"/>
<circle cx="268.545" cy="434.375" r="6.06523" fill="#0C0D0C"/>
<circle cx="268.505" cy="365.509" r="4.5" fill="#737373"/>
<circle cx="268.505" cy="399.509" r="4.5" fill="#737373"/>
<circle cx="268.505" cy="434.509" r="4.5" fill="#737373"/>
<path d="M137.337 297.645L167.592 311.477L202.171 286.407L223.35 311.477L256.2 285.111L277.38 310.18L305.045 298.514" stroke="#B03E56" stroke-width="3"/>
<path d="M137.337 297.645C148.984 297.645 155.513 297.645 167.159 297.645C178.806 297.645 188.026 308.697 201.306 305.426C211.352 302.951 213.171 292.584 223.35 290.729C235.796 288.462 241.404 300.479 254.039 301.103C264.489 301.62 280.406 296.349 280.406 296.349L305.045 298.514" stroke="#3B4B5B" stroke-width="3"/>
<path d="M238.675 240.003C239.57 240.179 240.48 240.268 241.393 240.268H266.75C267.664 240.268 268.577 240.178 269.474 240.001C278.414 238.232 283.325 228.547 279.469 220.29L273.513 207.537C270.226 200.499 263.16 196 255.392 196H252.727C244.972 196 237.917 200.483 234.622 207.503L228.654 220.217C224.766 228.501 229.695 238.235 238.675 240.003Z" fill="#737373"/>
<path d="M238.89 235.152C239.642 235.283 240.404 235.35 241.168 235.35H266.974C267.739 235.35 268.504 235.283 269.258 235.15C278.057 233.603 282.803 223.938 278.647 216.029L273.745 206.699C270.289 200.121 263.471 196.001 256.04 196.001H252.077C244.661 196.001 237.853 200.104 234.391 206.662L229.48 215.961C225.292 223.894 230.054 233.606 238.89 235.152Z" fill="#0C0D0C"/>
<path d="M239.127 229.594C239.722 229.683 240.322 229.728 240.923 229.728H267.219C267.822 229.728 268.424 229.683 269.02 229.593C277.574 228.304 282.042 218.705 277.521 211.33L273.247 204.357C270.064 199.165 264.413 196.001 258.324 196.001H249.793C243.72 196.001 238.08 199.15 234.895 204.321L230.614 211.269C226.06 218.663 230.539 228.306 239.127 229.594Z" fill="#737373"/>
<path d="M240.02 222.701H268.125C276.455 221.707 280.518 212.006 275.381 205.372L272.239 201.314C269.644 197.962 265.643 196 261.404 196H246.719C242.492 196 238.502 197.951 235.907 201.287L232.763 205.327C227.595 211.969 231.663 221.709 240.02 222.701Z" fill="#293D55"/>
<path d="M240.02 217.08H268.124C275.712 216.365 279.076 207.167 273.739 201.725L271.279 199.216C269.261 197.159 266.501 196 263.619 196H244.509C241.637 196 238.885 197.151 236.869 199.197L234.41 201.691C229.045 207.134 232.41 216.366 240.02 217.08Z" fill="#C4C4C4"/>
<path d="M246.087 205.135H263.427C267.175 204.906 268.477 200.041 265.345 197.97L264.494 197.408C263.798 196.948 262.983 196.703 262.149 196.703H247.359C246.529 196.703 245.717 196.946 245.023 197.402L244.174 197.961C241.031 200.028 242.332 204.907 246.087 205.135Z" fill="#0C0D0C"/>
<ellipse cx="183.5" cy="167" rx="0.5" ry="1" transform="rotate(180 183.5 167)" fill="#737373"/>
<path d="M449.091 101.616C466.145 80.0302 500.201 78.9 515.974 101.616C540.564 137.03 515.974 205.711 515.974 205.711L489.418 216.443H472.697L449.091 205.711C449.091 205.711 424.502 132.738 449.091 101.616Z" fill="#555656"/>
<path d="M450.02 102.617C466.6 81.4725 499.711 80.3653 515.045 102.617C538.952 137.309 515.045 204.589 515.045 204.589L489.226 215.101H472.97L450.02 204.589C450.02 204.589 426.114 133.104 450.02 102.617Z" fill="#737373"/>
<path d="M453.539 106.626C468.698 87.2434 498.97 86.2285 512.991 106.626C534.849 138.427 512.991 200.1 512.991 200.1L489.385 209.737H474.522L453.539 200.1C453.539 200.1 431.682 134.573 453.539 106.626Z" fill="url(#paint2_diamond)"/>
<path d="M464.651 150.771C474.306 147.49 493.588 147.319 502.518 150.771C516.439 156.153 502.518 166.592 502.518 166.592L487.482 168.223H478.016L464.651 166.592C464.651 166.592 450.73 155.501 464.651 150.771Z" fill="url(#paint3_diamond)"/>
<path d="M448.639 110.905L452.336 106.881C452.336 106.881 452.336 118.953 452.336 136.389C452.336 141.103 441.244 136.389 441.244 136.389L448.639 110.905Z" fill="#737373"/>
<path d="M517.865 111.558L514.578 107.801C514.578 107.801 514.578 119.072 514.578 135.353C514.578 139.754 524.438 135.353 524.438 135.353L517.865 111.558Z" fill="#737373"/>
<path d="M523.498 167.312L521.973 160.11C521.973 160.11 514.866 184.752 504.101 205.042C501.191 210.528 515.783 202.004 515.783 202.004L523.498 167.312Z" fill="#737373"/>
<path d="M442.418 167.354L443.632 160.11C443.632 160.11 451.719 184.381 463.258 204.161C466.378 209.509 451.528 201.62 451.528 201.62L442.418 167.354Z" fill="#737373"/>
<path d="M518.276 129.955L513.962 151.392L512.113 179.558L497.323 208.395" stroke="#737373"/>
<path d="M449.255 133.308V152.015L456.65 186.264L465.894 208.395" stroke="#737373"/>
<ellipse cx="523.843" cy="131.434" rx="1.21626" ry="2.43252" fill="#D4D8DA"/>
<ellipse cx="524.451" cy="131.434" rx="0.60813" ry="1.21626" fill="#737373"/>
<ellipse cx="447.219" cy="131.434" rx="1.21626" ry="2.43252" transform="rotate(180 447.219 131.434)" fill="#D4D8DA"/>
<rect x="456.77" y="142.6" width="16.8" height="9.8" fill="#293D55"/>
<path d="M468.005 158H459.535C454.923 158 451.17 154.29 451.17 149.73V145.266C451.174 140.71 454.923 137 459.535 137H468.005C472.617 137 476.37 140.71 476.37 145.266V149.726C476.37 154.29 472.617 158 468.005 158ZM459.535 142.695C458.098 142.695 456.931 143.849 456.931 145.27V149.73C456.931 151.151 458.098 152.305 459.535 152.305H468.005C469.443 152.305 470.609 151.151 470.609 149.73V145.266C470.609 143.845 469.443 142.692 468.005 142.692H459.535V142.695Z" fill="#D4D8DA"/>
<path d="M467.534 156.6H460.006C455.906 156.6 452.57 153.385 452.57 149.433V145.564C452.573 141.615 455.906 138.4 460.006 138.4H467.534C471.634 138.4 474.97 141.615 474.97 145.564V149.429C474.97 153.384 471.634 156.6 467.534 156.6ZM460.006 143.336C458.728 143.336 457.691 144.336 457.691 145.567V149.433C457.691 150.664 458.728 151.664 460.006 151.664H467.534C468.812 151.664 469.849 150.664 469.849 149.433V145.564C469.849 144.332 468.812 143.333 467.534 143.333H460.006V143.336Z" fill="#737373"/>
<rect x="494.708" y="142.6" width="16.8" height="9.8" fill="#293D55"/>
<path d="M505.944 158H497.474C492.861 158 489.109 154.29 489.109 149.73V145.266C489.112 140.71 492.861 137 497.474 137H505.944C510.556 137 514.309 140.71 514.309 145.266V149.726C514.309 154.29 510.556 158 505.944 158ZM497.474 142.695C496.036 142.695 494.87 143.849 494.87 145.27V149.73C494.87 151.151 496.036 152.305 497.474 152.305H505.944C507.381 152.305 508.548 151.151 508.548 149.73V145.266C508.548 143.845 507.381 142.692 505.944 142.692H497.474V142.695Z" fill="#D4D8DA"/>
<path d="M505.473 156.6H497.944C493.844 156.6 490.509 153.384 490.509 149.433V145.564C490.512 141.615 493.844 138.4 497.944 138.4H505.473C509.573 138.4 512.909 141.615 512.909 145.564V149.429C512.909 153.384 509.573 156.6 505.473 156.6ZM497.944 143.336C496.666 143.336 495.629 144.336 495.629 145.567V149.433C495.629 150.664 496.666 151.664 497.944 151.664H505.473C506.751 151.664 507.788 150.664 507.788 149.433V145.564C507.788 144.332 506.751 143.333 505.473 143.333H497.944V143.336Z" fill="#737373"/>
<defs>
<linearGradient id="paint0_linear" x1="168.888" y1="358.824" x2="592.048" y2="501.895" gradientUnits="userSpaceOnUse">
<stop stop-color="#F0F0F0"/>
<stop offset="0.936149" stop-color="#F0F0F0"/>
</linearGradient>
<radialGradient id="paint1_radial" cx="0" cy="0" r="1" gradientUnits="userSpaceOnUse" gradientTransform="translate(481.505 301.51) rotate(90) scale(15.5)">
<stop stop-color="white"/>
<stop offset="1" stop-color="#FF99AF"/>
</radialGradient>
<radialGradient id="paint2_diamond" cx="0" cy="0" r="1" gradientUnits="userSpaceOnUse" gradientTransform="translate(483.265 150.721) rotate(90) scale(59.0152 39.4402)">
<stop stop-color="#F0F0F0"/>
<stop offset="1" stop-color="#D4D8DA"/>
</radialGradient>
<radialGradient id="paint3_diamond" cx="0" cy="0" r="1" gradientUnits="userSpaceOnUse" gradientTransform="translate(483.584 158.234) rotate(90) scale(9.98854 25.1206)">
<stop stop-color="#F0F0F0"/>
<stop offset="1" stop-color="#F0F0F0" stop-opacity="0"/>
</radialGradient>
</defs>
</svg>
