<svg width="23" height="23" viewBox="0 0 23 23" fill="none" xmlns="http://www.w3.org/2000/svg">
    <path d="M15.75 14.571a1 1 0 00-1.406 1.423l1.405-1.423zm4.95 7.696a1 1 0 001.405-1.424L20.7 22.267zm-5.246-13.38c0 3.484-2.865 6.331-6.428 6.331v2c4.642 0 8.428-3.717 8.428-8.331h-2zm-6.428 6.331c-3.563 0-6.428-2.847-6.428-6.331h-2c0 4.614 3.786 8.331 8.428 8.331v-2zM2.598 8.887c0-3.485 2.865-6.332 6.428-6.332v-2C4.384.555.598 4.273.598 8.887h2zm6.428-6.332c3.563 0 6.428 2.847 6.428 6.332h2c0-4.614-3.786-8.332-8.428-8.332v2zm5.318 13.44l6.356 6.272 1.405-1.424-6.356-6.272-1.405 1.423z" fill="currentColor"></path>
</svg>